<svg id="Layer_1" fill="#00568f" enable-background="new 0 0 512 512" height="60px" viewBox="0 0 512 512" width="60px" xmlns="http://www.w3.org/2000/svg"><g><circle cx="344.755" cy="42.141" r="42.141"/><path d="m197.073 126.505v27.981c-5.001 1.536-9.421 4.982-12.05 10.005-5.179 9.899-1.076 22.157 8.729 27.512l58.957 32.198c7.607 4.154 17.154 3.086 23.71-3.06 4.17-3.91 6.367-9.489 6.367-15.205v-60.169c.036-4.008 3.61-7.389 7.818-7.389h1.085v90.765h107.701v-90.765h1.085c4.207 0 7.78 3.38 7.818 7.387v83.377h40.663v-83.45c0-.034 0-.068 0-.102-.132-26.398-21.88-47.875-48.48-47.875h-26.092c-1.247 6.698-7.862 39.091-20.879 48.994l2.181-10.358c.072-.342.074-.695.007-1.038l-2.561-11.031c-.24-1.219-1.309-2.098-2.551-2.098h-9.823c-1.243 0-2.311.879-2.551 2.098l-2.561 11.031c-.067.343-.065.696.007 1.038l2.181 10.358c-13.017-9.904-19.632-42.297-20.879-48.994h-26.349c-26.6 0-48.348 21.477-48.48 47.875v.102 26.394l-29.336-16.021c-1.226-.669-2.491-1.199-3.776-1.595v-27.966l24.608-24.608c2.906-2.906.848-7.874-3.262-7.874h-31.252l-12.836-23.304c-1.59-2.887-5.221-3.939-8.108-2.348s-3.939 5.22-2.348 8.108l9.664 17.545h-9.751c-4.109 0-6.167 4.968-3.262 7.874z"/><path d="m399.39 273.909h-107.701c-.024 23.719-.205 204.023-.214 213.694 0 13.474 10.923 24.398 24.398 24.398s24.398-10.923 24.398-24.398v-195.03h10.539v195.03c0 13.474 10.923 24.398 24.398 24.398s24.398-10.923 24.398-24.398c-.011-9.662-.192-189.975-.216-213.694z"/><path d="m408.293 285.046c0 11.229 9.103 20.331 20.331 20.331 11.229 0 20.331-9.103 20.331-20.331v-11.137h-40.663v11.137z"/><path d="m337.784 97.711c-1.982 0-3.479 1.798-3.119 3.747l2.597 14.064c.278 1.504 1.589 2.596 3.119 2.596h10.576c1.53 0 2.841-1.092 3.119-2.596l2.596-14.064c.36-1.949-1.137-3.747-3.119-3.747z"/><path d="m129.102 239.091c4.27-.445 7.599-4.053 7.599-8.441 0-10.666 0-58.151 0-66.594 0-9.491-5.849-17.612-14.136-20.968v-29.538c1.058-.116 1.885-1.003 1.885-2.092v-10.197c0-1.168-.947-2.115-2.115-2.115h-16.505c-1.168 0-2.115.947-2.115 2.115v10.197c0 1.089.827 1.976 1.885 2.092v29.539c-8.288 3.356-14.136 11.476-14.136 20.968v66.594c0 4.387 3.329 7.996 7.599 8.441h-32.773c6.097-2.847 4.74-9.239 4.906-9.948v-14.885h-26.135c-2.742 0-4.966-2.223-4.966-4.966v-14.039c0-2.742 2.223-4.966 4.966-4.966h26.135v-20.707c0-4.688-3.8-8.488-8.488-8.488h-5.648v-28.633c1.104-.071 1.979-.98 1.979-2.101v-10.197c0-1.168-.947-2.115-2.115-2.115h-16.504c-1.168 0-2.115.947-2.115 2.115v10.197c0 1.057.778 1.925 1.791 2.082v28.652h-5.648c-4.688 0-8.488 3.8-8.488 8.488v59.562c.142.605-1.105 7.141 4.906 9.948h-28.291v24.87h506.849v-24.87zm-8.747-21.063h-12.547c-2.261 0-4.093-1.833-4.093-4.093v-41.197c0-2.261 1.833-4.093 4.093-4.093h12.547c2.261 0 4.093 1.833 4.093 4.093v41.197c.001 2.26-1.832 4.093-4.093 4.093z"/></g></svg>