<?xml version="1.0" standalone="no"?>
<!DOCTYPE svg PUBLIC "-//W3C//DTD SVG 20010904//EN"
 "http://www.w3.org/TR/2001/REC-SVG-20010904/DTD/svg10.dtd">
<svg version="1.0" xmlns="http://www.w3.org/2000/svg"
 width="64.000000pt" height="64.000000pt" viewBox="0 0 64.000000 64.000000"
 preserveAspectRatio="xMidYMid meet">

<g transform="translate(0.000000,64.000000) scale(0.100000,-0.100000)"
fill="#000000" stroke="none">
<path d="M110 316 c0 -259 2 -295 16 -300 20 -8 378 -8 398 0 14 5 16 36 16
243 l0 237 -58 57 -58 57 -157 0 -157 0 0 -294z m290 219 l0 -55 55 0 55 0 0
-220 0 -220 -185 0 -185 0 0 275 0 275 130 0 130 0 0 -55z m70 -33 c-36 -6
-50 5 -50 40 l0 32 36 -35 c33 -32 34 -34 14 -37z"/>
<path d="M210 348 c-50 -54 1 -132 75 -114 41 10 31 36 -12 33 -37 -2 -38 -1
-38 33 0 34 1 35 38 33 38 -2 45 5 25 25 -19 19 -65 14 -88 -10z"/>
<path d="M320 365 c0 -3 12 -34 26 -70 18 -46 31 -65 42 -63 15 3 67 126 58
136 -13 12 -33 -10 -45 -49 -15 -47 -15 -47 -41 24 -5 15 -16 27 -25 27 -8 0
-15 -2 -15 -5z"/>
</g>
</svg>
